<svg xmlns="http://www.w3.org/2000/svg" width="1136" height="1093" viewBox="0 0 1136 1093" version="1.1">
	<path d="M 546.693 137.750 C 546.459 138.162, 546.626 144.350, 547.064 151.500 C 548.152 169.273, 549.909 204.999, 550.998 231.500 C 552.675 272.321, 554.034 299.482, 554.564 302.750 L 555.091 306 566.385 306 L 577.679 306 578.864 282.250 C 579.515 269.188, 580.478 250.175, 581.004 240 C 581.529 229.825, 582.465 210.025, 583.083 196 C 583.702 181.975, 584.536 163.300, 584.938 154.500 C 585.340 145.700, 585.492 138.162, 585.275 137.750 C 585.059 137.338, 576.385 137, 566 137 C 555.615 137, 546.927 137.338, 546.693 137.750 M 413.462 160.902 C 412.933 161.413, 405.525 164.616, 397 168.021 C 388.475 171.426, 381.120 174.566, 380.656 174.999 C 380.192 175.433, 382.719 181.348, 386.272 188.144 C 389.825 194.940, 398.701 212.200, 405.997 226.500 C 413.292 240.800, 423.875 261.500, 429.513 272.500 C 435.152 283.500, 443.683 300.150, 448.472 309.500 C 453.261 318.850, 457.499 326.838, 457.891 327.252 C 458.498 327.892, 473.103 322.603, 478.147 319.917 C 479.871 318.999, 480.075 319.572, 461.979 274.500 C 459.770 269, 448.603 241.127, 437.163 212.560 C 425.723 183.994, 415.926 160.475, 415.394 160.298 C 414.861 160.120, 413.992 160.392, 413.462 160.902 M 711.165 166.250 C 706.476 178.694, 699.900 195.656, 699.049 197.500 C 698.541 198.600, 697.810 200.625, 697.425 202 C 697.040 203.375, 695.709 206.750, 694.468 209.500 C 693.227 212.250, 691.503 216.525, 690.638 219 C 688.965 223.786, 685.145 233.679, 674.997 259.500 C 667.611 278.294, 662.730 290.991, 659.426 300 C 658.115 303.575, 656.603 307.400, 656.066 308.500 C 654.526 311.655, 652 318.170, 652 318.988 C 652 319.397, 655.487 320.985, 659.750 322.517 C 664.013 324.048, 668.702 325.902, 670.171 326.635 L 672.842 327.969 710.627 252.235 C 731.409 210.581, 748.432 176.117, 748.456 175.649 C 748.488 175.033, 714.865 161, 713.355 161 C 713.239 161, 712.253 163.363, 711.165 166.250 M 854.834 242.905 C 854.650 243.405, 839.678 259.269, 821.563 278.158 C 803.447 297.046, 780.047 321.493, 769.563 332.485 C 759.078 343.476, 747.240 355.880, 743.257 360.050 L 736.013 367.630 743.932 374.815 C 748.287 378.767, 752.152 382, 752.520 382 C 753.099 382, 769.519 367.893, 788.021 351.500 C 798.920 341.844, 816.508 326.406, 845.959 300.648 C 851.712 295.617, 860.830 287.577, 866.221 282.783 C 871.613 277.988, 877.594 272.813, 879.512 271.283 C 881.431 269.752, 882.959 268.050, 882.910 267.500 C 882.821 266.518, 858.998 244.221, 856.463 242.747 C 855.751 242.334, 855.018 242.404, 854.834 242.905 M 272.241 244.060 C 270.998 244.546, 264.698 250.015, 258.241 256.215 C 246.411 267.572, 245.043 269.008, 245.015 270.096 C 245.002 270.599, 261.835 285.049, 277.520 298 C 279.851 299.925, 284.175 303.567, 287.129 306.093 C 290.083 308.619, 303.300 319.836, 316.500 331.020 C 350.265 359.627, 364.410 371.690, 371.291 377.750 C 374.570 380.637, 377.644 383, 378.123 383 C 379.331 383, 394 368.963, 394 367.808 C 394 366.999, 303.708 272.617, 282.101 250.839 C 275.477 244.163, 274.209 243.292, 272.241 244.060 M 510.500 259.456 C 507.200 260.170, 501.238 261.300, 497.250 261.967 C 492.362 262.785, 490 263.628, 490 264.553 C 490 265.308, 490.862 268.304, 491.916 271.212 C 492.970 274.121, 494.519 278.975, 495.359 282 C 497.545 289.870, 504.085 314.861, 505.042 319 C 505.488 320.925, 507.669 329.250, 509.890 337.500 C 512.111 345.750, 516.594 362.625, 519.852 375 C 523.109 387.375, 526.068 398.208, 526.426 399.073 C 527.003 400.465, 527.790 400.496, 533.289 399.343 C 536.705 398.627, 540.486 398.032, 541.691 398.021 C 542.896 398.009, 544.167 397.540, 544.514 396.977 C 544.862 396.414, 543.771 387.752, 542.089 377.727 C 538.972 359.145, 529.095 299.789, 526.409 283.500 C 525.593 278.550, 524.482 271.575, 523.941 268 C 522.232 256.722, 522.464 256.869, 510.500 259.456 M 607.630 260.250 C 607.299 261.488, 607.021 263.871, 607.014 265.546 C 607 268.494, 602.042 300.339, 600.014 310.500 C 599.465 313.250, 598.547 318.650, 597.972 322.500 C 597.398 326.350, 596.474 332.200, 595.918 335.500 C 594.536 343.699, 591.979 359.431, 591.041 365.500 C 590.616 368.250, 589.455 375, 588.461 380.500 C 587.468 386, 586.620 392.027, 586.577 393.892 L 586.500 397.285 595 399.025 C 599.675 399.983, 603.804 400.481, 604.176 400.133 C 604.850 399.501, 607.843 388.829, 610.523 377.500 C 611.304 374.200, 612.814 368.350, 613.878 364.500 C 617.496 351.422, 620.027 341.936, 624.099 326.203 C 626.335 317.566, 629.075 307.125, 630.188 303 C 631.301 298.875, 632.437 294.375, 632.712 293 C 632.987 291.625, 634.250 286.900, 635.519 282.500 C 638.790 271.158, 640.439 264.104, 639.934 263.617 C 639.379 263.082, 612.261 258, 609.962 258 C 609.011 258, 607.962 259.012, 607.630 260.250 M 394.296 303.330 C 387.033 307.824, 381.071 312.014, 381.046 312.642 C 381.020 313.270, 383.031 316.043, 385.513 318.804 C 389.631 323.384, 419.411 361.371, 455.242 407.750 C 462.997 417.788, 469.749 426, 470.246 426 C 471.441 426, 484.882 418, 485.577 416.875 C 486.158 415.935, 483.875 412.237, 454.035 365.795 C 443.329 349.133, 428.812 326.500, 421.775 315.500 C 414.738 304.500, 408.647 295.424, 408.240 295.330 C 407.833 295.237, 401.558 298.837, 394.296 303.330 M 719.088 301.011 C 717.390 303.771, 716 306.267, 716 306.556 C 716 306.845, 715.137 308.300, 714.083 309.790 C 712.438 312.115, 698.557 333.245, 677.814 365 C 674.760 369.675, 666.222 382.725, 658.840 394 C 651.458 405.275, 645.101 415.017, 644.713 415.649 C 644.270 416.369, 646.762 418.514, 651.390 421.399 C 659.258 426.303, 660.490 426.720, 661.300 424.750 C 661.582 424.063, 668.718 414.869, 677.157 404.320 C 685.596 393.771, 698.800 377.159, 706.500 367.405 C 714.200 357.650, 726.958 341.593, 734.851 331.722 C 746.617 317.008, 748.959 313.554, 747.851 312.554 C 746.772 311.580, 728.267 299.595, 723.338 296.679 C 722.625 296.257, 720.985 297.929, 719.088 301.011 M 555 345 L 555 367 566 367 L 577 367 577 345 L 577 323 566 323 L 555 323 555 345 M 475.320 337.817 C 470.271 339.857, 465.867 341.800, 465.533 342.134 C 464.635 343.032, 483.060 382.998, 484.377 383.009 C 484.995 383.014, 489.682 381.327, 494.794 379.259 C 501.644 376.489, 503.962 375.106, 503.610 374 C 500.864 365.375, 486.861 334.766, 485.486 334.382 C 484.944 334.231, 480.369 335.776, 475.320 337.817 M 636.673 354.368 C 631.903 365.066, 628 374.263, 628 374.806 C 628 375.664, 645.324 383, 647.351 383 C 647.764 383, 648.769 381.403, 649.585 379.451 C 650.400 377.500, 652.343 373.112, 653.903 369.701 C 655.463 366.291, 657.797 361.025, 659.090 358 C 660.384 354.975, 662.426 350.475, 663.629 348 C 664.832 345.525, 665.520 343.190, 665.158 342.811 C 664.796 342.432, 660.900 340.785, 656.500 339.152 C 652.100 337.519, 647.790 335.898, 646.923 335.550 C 645.665 335.047, 643.588 338.860, 636.673 354.368 M 946 372.606 C 941.875 374.550, 933.775 378.103, 928 380.502 C 922.225 382.901, 913 386.941, 907.500 389.479 C 892.132 396.571, 874.512 404.407, 847.500 416.165 C 838.700 419.995, 829.250 424.181, 826.500 425.467 C 823.750 426.753, 817.225 429.674, 812 431.959 C 793.104 440.221, 793.744 439.844, 794.373 442.351 C 795.168 445.516, 801.609 459.118, 803.334 461.272 C 804.527 462.763, 805.210 462.866, 807.626 461.919 C 812.823 459.884, 860.618 442.774, 888.500 432.968 C 892.900 431.420, 901.675 428.279, 908 425.988 C 914.325 423.696, 928.275 418.754, 939 415.006 C 949.725 411.258, 961.200 407.214, 964.500 406.019 C 967.800 404.823, 971.057 403.671, 971.738 403.459 C 972.644 403.176, 972.468 402.192, 971.082 399.786 C 970.040 397.979, 966.387 390.313, 962.964 382.750 C 958.641 373.201, 956.245 369.011, 955.120 369.036 C 954.229 369.056, 950.125 370.662, 946 372.606 M 169.119 378.138 C 162.943 391.535, 157.702 404.041, 158.117 404.392 C 158.328 404.570, 161.875 405.866, 166 407.272 C 175.926 410.654, 198.925 418.571, 235 431.026 C 251.225 436.627, 267.650 442.269, 271.500 443.565 C 275.350 444.860, 287.050 448.905, 297.500 452.553 C 322.828 461.396, 326.048 462.356, 327.023 461.354 C 328.516 459.819, 335.859 442.031, 335.171 441.617 C 334.802 441.395, 328.650 438.650, 321.500 435.517 C 314.350 432.384, 304.450 428.028, 299.500 425.836 C 261.905 409.191, 256.953 406.994, 249 403.426 C 241.714 400.158, 176.769 371.395, 174.237 370.315 C 173.415 369.964, 171.627 372.698, 169.119 378.138 M 314.763 377.249 C 303.336 392.834, 302 394.815, 302 396.176 C 302 396.950, 304.553 398.836, 307.674 400.366 C 313.103 403.029, 324.337 409.374, 396.682 450.642 C 414.382 460.739, 429.463 469, 430.194 469 C 431.506 469, 441 456.753, 441 455.060 C 441 454.580, 417.262 437.705, 388.250 417.561 C 359.238 397.417, 332.030 378.475, 327.790 375.467 L 320.080 369.999 314.763 377.249 M 805.929 373.907 C 803.990 375.505, 790.275 385.159, 775.452 395.358 C 760.628 405.558, 742.200 418.248, 734.500 423.559 C 726.800 428.870, 713.975 437.692, 706 443.163 C 698.025 448.634, 691.122 453.487, 690.659 453.946 C 690.197 454.405, 692.142 457.975, 694.981 461.879 L 700.144 468.977 703.189 467.402 C 704.863 466.536, 709.669 463.795, 713.867 461.310 C 718.065 458.825, 723.975 455.424, 727 453.752 C 730.025 452.080, 740.600 446.115, 750.500 440.497 C 760.400 434.879, 778.625 424.547, 791 417.537 C 826.303 397.538, 827.975 396.550, 827.988 395.666 C 828.009 394.234, 811.555 371.103, 810.478 371.050 C 809.916 371.023, 807.869 372.308, 805.929 373.907 M 398.503 386.063 C 394.376 390.064, 391.007 393.824, 391.016 394.419 C 391.034 395.563, 422.736 425.500, 423.930 425.500 C 424.315 425.500, 428.200 422.209, 432.565 418.187 L 440.500 410.873 432 402.887 C 427.325 398.494, 419.564 391.275, 414.753 386.844 L 406.005 378.788 398.503 386.063 M 707.445 395.496 L 691.500 410.993 699 417.995 C 703.125 421.846, 706.766 424.998, 707.092 424.999 C 707.418 424.999, 714.843 418.025, 723.592 409.501 L 739.500 394.002 732 387.002 C 727.875 383.153, 724.250 380.002, 723.945 380.001 C 723.640 380.001, 716.215 386.973, 707.445 395.496 M 610.706 442.440 C 605.205 445.706, 600.220 450.787, 596.913 456.500 C 594.189 461.205, 594.018 462.165, 594.009 472.779 C 593.999 485.203, 594.710 487.322, 603.955 502.427 C 614.643 519.888, 619.120 529.889, 621.894 542.500 C 623.145 548.184, 624.128 550.592, 625.292 550.816 C 626.406 551.032, 627.102 550.234, 627.472 548.316 C 630.608 532.048, 634.960 521.382, 645.657 503.742 C 648.740 498.659, 652.380 492.137, 653.748 489.250 C 655.115 486.363, 656.631 484, 657.117 484 C 657.603 484, 658 479.288, 658 473.530 L 658 463.060 653.038 455.746 C 648.081 448.440, 645.330 445.836, 638.542 442.024 C 635.538 440.336, 633.240 440.016, 624.720 440.094 C 616.013 440.175, 613.938 440.522, 610.706 442.440 M 772.500 448.427 C 770.850 449.121, 762.750 452.328, 754.500 455.552 C 746.250 458.777, 738.427 462.446, 737.115 463.706 L 734.729 465.998 738.043 473.749 C 742.006 483.019, 742.683 484, 745.122 484 C 746.769 484, 747 483.190, 747 477.423 C 747 471.487, 747.285 470.561, 749.923 467.923 L 752.846 465 769.423 465 C 778.540 465, 786 464.826, 786 464.612 C 786 463.501, 779.476 450.251, 778.190 448.750 C 776.469 446.742, 776.497 446.743, 772.500 448.427 M 347.447 456.685 C 342.050 468.528, 342.035 468.239, 348.194 470.740 C 364.884 477.519, 381.826 483.870, 384 484.163 C 386.225 484.463, 386.899 483.674, 390.123 477 C 395.651 465.559, 395.641 465.769, 390.736 463.796 C 372.812 456.587, 352.979 449, 352.060 449 C 351.449 449, 349.374 452.458, 347.447 456.685 M 619.201 463.028 C 615.167 466.785, 615.079 474.951, 619.032 478.529 C 621.390 480.663, 629.099 480.992, 631.430 479.058 C 633.474 477.361, 635.091 471.252, 634.340 468.061 C 632.754 461.322, 624.115 458.449, 619.201 463.028 M 260.375 468.431 C 242.314 472.537, 229.303 484.796, 224.833 501.919 C 223.335 507.657, 223.108 514.337, 223.058 554.050 C 223.014 588.210, 223.300 599.900, 224.200 600.800 C 225.899 602.499, 267.101 602.499, 268.800 600.800 C 269.613 599.987, 270 595.311, 270 586.300 C 270 573.667, 270.100 573, 272 573 C 273.900 573, 274 573.667, 274 586.300 C 274 595.311, 274.387 599.987, 275.200 600.800 C 276.058 601.658, 282.432 602, 297.545 602 C 316.760 602, 318.841 601.833, 320.345 600.171 C 321.828 598.532, 321.998 594.146, 321.983 557.921 C 321.973 535.690, 321.538 513.450, 321.016 508.500 C 318.775 487.263, 310.807 476.088, 293.461 469.855 C 285.852 467.121, 269.277 466.407, 260.375 468.431 M 850.555 471.574 C 846.736 472.908, 842.814 474, 841.840 474 C 840.867 474, 838.142 474.616, 835.785 475.368 C 833.428 476.121, 827.225 477.713, 822 478.908 C 816.775 480.103, 810.813 481.530, 808.750 482.080 L 805 483.080 805 496.040 C 805 505.741, 805.314 509, 806.250 509 C 811.101 508.999, 824.115 505.463, 829.796 502.603 C 839.555 497.688, 846.964 495.802, 857.143 495.641 C 864.155 495.530, 865.912 495.216, 865.502 494.147 C 864.897 492.567, 862.163 480.081, 861.310 475 C 860.727 471.527, 859.333 468.931, 858.128 469.074 C 857.782 469.115, 854.375 470.240, 850.555 471.574 M 469.200 471.200 C 468.304 472.096, 468 483.209, 468 515.040 C 468 554.250, 468.159 558.302, 469.978 565.415 C 473.385 578.736, 479.525 587.835, 489.636 594.546 C 507.176 606.189, 530.781 606.340, 547.883 594.919 C 574.866 576.900, 578.573 538.536, 555.555 515.518 C 545.001 504.964, 528.236 498.659, 515.949 500.624 L 512 501.256 512 486.828 C 512 476.940, 511.622 472.022, 510.800 471.200 C 509.105 469.505, 470.895 469.505, 469.200 471.200 M 753.200 471.200 C 752.304 472.096, 752 483.133, 752 514.700 C 752 560.674, 752.293 558.458, 746.551 555.841 C 744.429 554.874, 743.673 554.986, 741.985 556.514 C 740.057 558.259, 739.975 559.352, 740.231 579.812 L 740.500 601.281 744.824 602.557 C 767.820 609.343, 789.340 597.530, 797.303 573.748 C 799.282 567.839, 799.416 564.967, 799.775 520.829 C 800.043 487.810, 799.829 473.549, 799.042 472.079 C 797.968 470.072, 797.181 470, 776.165 470 C 760.570 470, 754.060 470.340, 753.200 471.200 M 258.666 479.014 C 243.594 484.354, 235.367 494.474, 233.047 510.531 C 232.493 514.364, 232.031 534.263, 232.020 554.750 L 232 592 246.472 592 L 260.944 592 261.222 578.250 L 261.500 564.500 267.750 564.202 L 274 563.905 274 551.452 L 274 539 268.700 539 C 265.785 539, 262.860 538.460, 262.200 537.800 C 260.579 536.179, 260.575 514.027, 262.195 510.472 C 263.722 507.120, 267.837 505, 272.815 505 C 277.803 505, 281.607 507.923, 282.960 512.795 C 283.581 515.032, 283.991 531.463, 283.994 554.250 L 284 592 298.065 592 L 312.131 592 311.802 547.750 C 311.482 504.799, 311.407 503.325, 309.236 497.533 C 306.128 489.242, 302.422 485.065, 294.616 481.053 C 288.276 477.794, 287.271 477.588, 276.205 477.276 C 266.358 476.999, 263.574 477.275, 258.666 479.014 M 477.020 515.250 C 477.031 534.638, 477.483 553.650, 478.024 557.500 C 479.365 567.030, 484.649 577.629, 490.772 583.070 C 509.786 599.963, 539.635 596.379, 554.018 575.474 C 559.124 568.053, 561.289 559.737, 560.733 549.689 C 560.315 542.153, 559.724 539.826, 556.646 533.599 C 552.233 524.669, 545.441 518.037, 536.353 513.784 C 530.784 511.178, 528.496 510.683, 521.629 510.599 L 513.500 510.500 513.222 524.177 L 512.945 537.854 516.457 536.884 C 523.039 535.067, 530.310 538.740, 533.878 545.684 C 535.830 549.484, 535.252 557.334, 532.750 561.010 C 528.885 566.688, 525.560 568.500, 519 568.500 C 511.916 568.500, 508.532 566.403, 505.250 559.980 C 503.034 555.643, 503 555.004, 503 517.788 L 503 480 490 480 L 477 480 477.020 515.250 M 761.994 517.750 C 761.991 540.537, 761.581 556.968, 760.960 559.205 C 759.787 563.427, 755.848 567, 752.365 567 L 750 567 750 580.481 L 750 593.962 752.589 594.612 C 756.673 595.637, 765.209 594.382, 770.239 592.017 C 779.067 587.868, 785.613 579.428, 788.448 568.540 C 789.729 563.619, 790 555.380, 790 521.290 L 790 480 776 480 L 762 480 761.994 517.750 M 322.672 491.914 C 323.923 495.646, 325.237 501.354, 325.592 504.600 C 326.703 514.762, 330.608 515.586, 339.131 507.456 C 345.230 501.639, 351.153 498.438, 359.500 496.449 C 365.178 495.095, 366.198 495.554, 348.500 491.496 C 342.450 490.109, 335.025 488.349, 332 487.585 C 328.975 486.821, 325.127 485.956, 323.448 485.663 L 320.396 485.129 322.672 491.914 M 362.121 501.108 C 354.048 502.478, 348.573 505.311, 342.136 511.452 C 335.739 517.554, 331.495 525.116, 329.977 533.120 C 328.503 540.894, 328.695 599.295, 330.200 600.800 C 331.800 602.400, 371.095 602.505, 372.687 600.913 C 373.470 600.130, 373.962 600.130, 374.446 600.913 C 374.893 601.636, 381.722 602, 394.859 602 C 407.741 602, 414.978 601.622, 415.687 600.913 C 416.470 600.130, 416.962 600.130, 417.446 600.913 C 417.893 601.636, 424.735 602, 437.904 602 C 455.802 602, 457.848 601.826, 459.345 600.171 C 460.803 598.560, 460.998 595.017, 460.980 570.421 C 460.957 537.422, 460.245 531.061, 455.490 521.348 C 450.157 510.458, 441.693 504.079, 429.086 501.451 C 418.416 499.226, 409.432 500.971, 399.792 507.141 L 395.085 510.154 390.553 507.037 C 382.423 501.443, 372.427 499.359, 362.121 501.108 M 719.043 501.092 C 707.198 503.157, 695.266 511.583, 689.698 521.814 C 684.541 531.289, 684 535.770, 684 569.010 C 684 591.469, 684.319 599.919, 685.200 600.800 C 686.052 601.652, 692.089 602, 706 602 C 719.911 602, 725.948 601.652, 726.800 600.800 C 727.666 599.934, 728 592.992, 728 575.865 C 728 562.811, 728.439 550.976, 728.975 549.565 C 730.114 546.569, 731.640 546.384, 736.418 548.662 C 742.794 551.703, 743 550.963, 743 524.991 L 743 502.227 738.750 501.636 C 729.336 500.325, 724.244 500.185, 719.043 501.092 M 853 500.593 C 838.356 502.990, 828.805 507.412, 820.642 515.575 C 811.124 525.093, 805.983 537.705, 806.024 551.432 C 806.071 566.826, 810.497 577.666, 821.058 588.250 C 841.564 608.801, 873.591 608.728, 894.013 588.084 C 904.566 577.417, 909 566.711, 909 551.895 C 909 524.870, 888.752 502.813, 862 500.698 C 858.425 500.415, 854.375 500.368, 853 500.593 M 393.500 503 C 393.840 503.550, 394.568 504, 395.118 504 C 395.668 504, 395.840 503.550, 395.500 503 C 395.160 502.450, 394.432 502, 393.882 502 C 393.332 502, 393.160 502.450, 393.500 503 M 646.759 507.250 C 643.563 512.140, 643.728 513.479, 647.812 515.774 C 653.359 518.892, 661.735 528.172, 664.487 534.247 C 671.798 550.392, 668.949 567.772, 656.903 580.509 C 640.320 598.043, 613.063 598.279, 596.611 581.031 C 590.281 574.395, 586.703 567.772, 585.003 559.545 C 582.017 545.093, 588.591 527.903, 600.560 518.867 C 603.458 516.679, 606.050 514.313, 606.320 513.609 C 606.590 512.905, 605.907 510.902, 604.803 509.158 L 602.795 505.987 598.764 508.244 C 592.833 511.563, 584.782 520.051, 581.270 526.684 C 576.709 535.298, 575 542.221, 575 552.076 C 575 598.078, 630.617 620.832, 663.013 588.084 C 673.566 577.417, 678 566.711, 678 551.895 C 678 534.381, 668.790 517.729, 653.518 507.633 C 648.689 504.440, 648.599 504.435, 646.759 507.250 M 362.500 510.872 C 352.225 513.558, 344.292 520.717, 341.093 530.190 C 339.168 535.892, 339 538.616, 339 564.194 L 339 592 351.438 592 L 363.875 592 364.188 566.750 C 364.522 539.742, 364.777 538.334, 369.743 536.071 C 373.551 534.336, 375.970 534.817, 379.077 537.923 L 382 540.846 382 566.423 L 382 592 394.953 592 L 407.905 592 408.203 565.912 L 408.500 539.824 411.306 537.412 C 416.524 532.926, 423.079 535.023, 424.956 541.779 C 425.529 543.846, 425.991 555.837, 425.994 568.750 L 426 592 438.568 592 L 451.135 592 450.767 562.750 C 450.453 537.914, 450.133 532.801, 448.645 528.867 C 444.431 517.731, 433.848 510.583, 421.500 510.533 C 413.337 510.500, 408.492 512.495, 400.239 519.289 L 394.978 523.619 390.399 519.356 C 387.881 517.010, 383.830 514.128, 381.396 512.950 C 376.612 510.634, 367.319 509.612, 362.500 510.872 M 718.734 511.066 C 705.878 514.169, 696.695 524.382, 694.089 538.474 C 693.490 541.715, 693 555.085, 693 568.184 L 693 592 706 592 L 719 592 719 569.450 C 719 545.022, 719.328 543.247, 724.615 539.088 C 726.123 537.902, 728.736 537, 730.664 537 L 734.058 537 733.779 523.750 L 733.500 510.500 728 510.329 C 724.975 510.235, 720.806 510.567, 718.734 511.066 M 846.024 511.603 C 830.546 515.763, 818.940 528.915, 815.787 545.871 C 813.435 558.516, 818.581 572.694, 829.036 582.373 C 835.689 588.532, 841.963 591.741, 850.187 593.190 C 878.080 598.103, 903.755 573.112, 898.990 545.685 C 894.640 520.647, 870.404 505.052, 846.024 511.603 M 270.630 517.250 C 270.299 518.487, 270.021 521.638, 270.014 524.250 C 270.002 528.338, 270.279 529, 272 529 C 273.810 529, 274 528.333, 274 522 C 274 516.707, 273.663 515, 272.617 515 C 271.856 515, 270.962 516.013, 270.630 517.250 M 973.668 523.634 C 973.441 523.814, 950.525 524.806, 928.500 525.589 C 918.600 525.940, 910.193 526.514, 909.818 526.864 C 909.443 527.214, 910.230 531.263, 911.568 535.863 C 912.921 540.518, 914 546.837, 914 550.113 C 914 555.510, 914.187 556.012, 916.250 556.140 C 917.487 556.217, 920.075 556.383, 922 556.510 C 925.602 556.747, 945.146 557.555, 971.500 558.556 C 979.750 558.869, 988.638 559.273, 991.250 559.454 L 996 559.783 996 541.359 L 996 522.935 984.918 523.217 C 978.823 523.373, 973.760 523.560, 973.668 523.634 M 133 542.528 L 133 561.216 142.750 560.581 C 160.066 559.453, 195.221 558.011, 205.550 558.006 C 212.026 558.002, 216.027 557.573, 216.800 556.800 C 217.617 555.983, 218 551.220, 218 541.888 L 218 528.176 214.250 527.598 C 212.188 527.281, 197.450 526.573, 181.500 526.025 C 165.550 525.477, 148.113 524.761, 142.750 524.434 L 133 523.840 133 542.528 M 849.960 537.303 C 844.907 539.975, 841 546.314, 841 551.842 C 841 559.552, 846.865 566.933, 854.288 568.563 C 861.511 570.150, 870.958 564.435, 872.932 557.284 C 874.353 552.138, 872.598 544.246, 869.236 540.667 C 863.671 534.741, 857.004 533.578, 849.960 537.303 M 632.387 539.596 C 632.028 541.023, 632.015 544.873, 632.358 548.151 C 632.925 553.572, 632.760 554.331, 630.536 556.555 C 627.274 559.817, 624.713 559.636, 621.589 555.923 C 619.450 553.382, 619 551.831, 619 547.005 C 619 543.792, 618.730 540.460, 618.400 539.600 C 616.778 535.372, 610 545.378, 610 552 C 610 556.746, 613.713 563.855, 617.346 566.064 C 624.315 570.302, 631.105 569.707, 637.050 564.336 C 644.190 557.885, 644.707 548.002, 638.276 540.884 C 634.143 536.309, 633.260 536.116, 632.387 539.596 M 853.174 547.314 C 850.354 550.317, 850.409 554.096, 853.314 556.826 C 856.318 559.648, 858.518 559.573, 861.545 556.545 C 864.544 553.547, 864.649 551.095, 861.927 547.635 C 859.369 544.383, 856.043 544.261, 853.174 547.314 M 515.750 547.758 C 512.591 549.717, 512.117 553.295, 514.557 556.777 C 517.748 561.333, 525 558.363, 525 552.500 C 525 550.134, 524.330 548.644, 522.777 547.557 C 520.001 545.612, 519.174 545.635, 515.750 547.758 M 856.177 551.553 C 856.629 553.725, 858.404 553.858, 858.810 551.750 C 859.020 550.655, 858.530 550, 857.500 550 C 856.539 550, 855.988 550.647, 856.177 551.553 M 733 573.441 C 733 578.656, 733.448 583.159, 734 583.500 C 734.641 583.896, 735 580.510, 735 574.059 C 735 568.020, 734.600 564, 734 564 C 733.404 564, 733 567.814, 733 573.441 M 802.358 574.687 C 800.436 580.238, 797.591 585.830, 794.496 590.138 C 792.573 592.815, 791 595.414, 791 595.914 C 791 596.415, 792.913 597.129, 795.250 597.501 C 797.587 597.873, 801.750 598.805, 804.500 599.572 C 807.250 600.339, 812.875 601.632, 817 602.446 C 827.022 604.423, 846.020 608.652, 853.744 610.624 C 860.050 612.235, 863.482 611.946, 862.788 609.864 C 862.570 609.210, 859.468 608.587, 855.455 608.391 C 851.630 608.205, 846.250 607.528, 843.500 606.888 C 830.326 603.819, 815.750 592.832, 808.574 580.562 C 804.156 573.007, 803.239 572.141, 802.358 574.687 M 268.750 606.302 C 265.916 607.419, 265.171 610.141, 266.935 612.929 C 267.701 614.139, 269.187 613.958, 276.670 611.740 C 281.526 610.300, 287.300 608.760, 289.500 608.316 C 292.997 607.610, 292.306 607.435, 284 606.922 C 278.775 606.599, 273.825 606.083, 273 605.776 C 272.175 605.469, 270.262 605.705, 268.750 606.302 M 366.500 608.646 C 352.281 613.731, 343.511 617.724, 343.798 618.981 C 344.032 620.008, 350.829 635.610, 351.550 636.778 C 351.704 637.027, 394.259 620.133, 394.606 619.685 C 394.685 619.583, 393.490 616.800, 391.949 613.500 L 389.149 607.500 380.824 607 C 373.973 606.588, 371.438 606.880, 366.500 608.646 M 737.222 612.767 C 735.970 615.920, 734.845 618.908, 734.722 619.407 C 734.534 620.176, 742.238 623.483, 758 629.400 C 770.725 634.176, 777.264 636.130, 777.981 635.370 C 779.524 633.737, 785.827 617.502, 785.163 616.874 C 784.798 616.529, 779.941 614.666, 774.369 612.733 C 766.714 610.077, 763.171 609.337, 759.869 609.700 C 757.466 609.965, 752.435 609.466, 748.688 608.591 C 744.941 607.716, 741.341 607.008, 740.688 607.017 C 740.035 607.026, 738.475 609.614, 737.222 612.767 M 422.969 621.334 C 418.239 624.218, 401.342 633.850, 388.500 640.983 C 351.119 661.745, 301.962 690.490, 302.198 691.449 C 302.672 693.378, 318.403 715.891, 319.317 715.949 C 319.767 715.977, 322.497 714.087, 325.383 711.750 C 328.270 709.413, 336.592 703.450, 343.877 698.500 C 351.162 693.550, 367.031 682.630, 379.141 674.234 C 391.251 665.838, 409.111 653.556, 418.829 646.942 C 428.548 640.327, 437.321 634.298, 438.324 633.544 C 440.038 632.254, 439.839 631.748, 434.993 625.086 C 432.159 621.189, 429.524 618, 429.138 618 C 428.753 618, 425.977 619.500, 422.969 621.334 M 694.687 624.500 C 692.109 628.083, 690.020 631.574, 690.044 632.258 C 690.068 632.941, 696.031 637.411, 703.294 642.191 C 710.557 646.971, 726.400 657.646, 738.500 665.914 C 750.600 674.181, 761.487 681.520, 762.693 682.223 C 763.899 682.925, 770.874 687.580, 778.193 692.566 C 807.317 712.407, 811.468 715.097, 811.735 714.296 C 811.887 713.838, 815.833 708.071, 820.503 701.481 C 829.985 688.102, 829.951 688.756, 821.364 684.985 C 819.089 683.986, 806.939 677.424, 794.364 670.403 C 781.789 663.382, 769.700 656.640, 767.500 655.420 C 756.868 649.526, 745.929 643.426, 740.500 640.365 C 737.200 638.504, 731.575 635.401, 728 633.469 C 724.425 631.536, 719.925 629.022, 718 627.880 C 716.075 626.738, 712.700 624.850, 710.500 623.684 C 708.300 622.518, 705.825 621.040, 705 620.400 C 700.891 617.213, 699.544 617.748, 694.687 624.500 M 800.499 627.250 C 799.506 629.587, 797.626 633.941, 796.322 636.925 C 795.018 639.909, 794.299 642.675, 794.725 643.072 C 795.151 643.468, 797.750 644.702, 800.500 645.813 C 807.024 648.449, 826.103 656.396, 842.758 663.413 C 850.050 666.486, 856.226 669, 856.483 669 C 856.740 669, 859.897 670.350, 863.500 672 C 867.103 673.650, 870.294 675, 870.592 675 C 870.890 675, 876.166 677.196, 882.317 679.880 C 888.467 682.564, 898.675 686.899, 905 689.513 C 915.137 693.701, 938.963 703.620, 944.500 705.957 C 945.600 706.421, 948.691 707.773, 951.369 708.962 C 954.047 710.150, 956.753 710.925, 957.382 710.684 C 958.244 710.353, 966.936 690.726, 971.653 678.460 C 972.121 677.244, 973.518 677.746, 937 666.017 C 921.325 660.982, 905.800 655.956, 902.500 654.846 C 899.200 653.737, 894.250 652.232, 891.500 651.502 C 888.750 650.772, 884.025 649.273, 881 648.172 C 877.975 647.071, 872.800 645.399, 869.500 644.457 C 866.200 643.514, 863.072 642.351, 862.550 641.871 C 862.028 641.392, 860.927 641, 860.103 641 C 859.280 641, 846.159 636.950, 830.946 632 C 815.732 627.050, 803.064 623, 802.794 623 C 802.524 623, 801.491 624.913, 800.499 627.250 M 293.500 635.576 C 275.900 641.877, 259.025 647.888, 256 648.935 C 252.975 649.981, 243.300 653.384, 234.500 656.496 C 225.700 659.607, 217.375 662.538, 216 663.009 C 214.625 663.479, 207.650 665.961, 200.500 668.525 C 193.350 671.089, 185.700 673.781, 183.500 674.507 C 176.497 676.817, 159.699 682.968, 159.299 683.368 C 159.087 683.579, 160.117 686.396, 161.588 689.626 C 163.058 692.857, 165.700 698.650, 167.459 702.500 C 169.217 706.350, 171.293 710.962, 172.072 712.750 C 172.851 714.538, 173.991 716, 174.606 716 C 175.635 716, 180.613 713.869, 195 707.268 C 208.816 700.930, 225.974 693.179, 251.500 681.746 C 256.450 679.528, 263.393 676.382, 266.929 674.754 C 270.464 673.126, 279.689 668.971, 287.429 665.520 C 295.168 662.070, 306.450 656.994, 312.500 654.240 C 318.550 651.487, 326.121 648.066, 329.324 646.638 C 334.395 644.379, 335.060 643.766, 334.469 641.901 C 333.235 638.016, 326.628 623.999, 326.058 624.060 C 325.751 624.093, 311.100 629.276, 293.500 635.576 M 455.321 679.122 C 447.169 689.640, 438.700 700.622, 436.500 703.527 C 434.300 706.433, 430.282 711.665, 427.571 715.155 C 424.860 718.645, 419.697 725.325, 416.098 730 C 412.499 734.675, 403.364 746.483, 395.798 756.241 C 382.253 773.711, 382.076 774.003, 384.271 775.369 C 385.497 776.132, 391.635 779.983, 397.911 783.927 C 406.585 789.378, 409.533 790.786, 410.201 789.799 C 410.685 789.084, 412.165 786.475, 413.490 784 C 414.815 781.525, 419.409 774.004, 423.699 767.287 C 427.990 760.569, 435.297 749.094, 439.938 741.787 C 444.579 734.479, 450.699 724.900, 453.538 720.500 C 456.378 716.100, 461.993 707.325, 466.018 701 C 470.043 694.675, 476.185 685.130, 479.668 679.789 C 483.151 674.449, 486 669.883, 486 669.643 C 486 669.135, 471.492 660, 470.685 660 C 470.386 660, 463.472 668.605, 455.321 679.122 M 652.578 664.527 C 648.771 666.993, 645.461 669.206, 645.222 669.445 C 644.983 669.684, 646.583 672.494, 648.778 675.690 C 650.972 678.885, 656.996 688.025, 662.163 696 C 670.806 709.340, 678.474 721.084, 699.207 752.735 C 703.445 759.206, 710.577 770.247, 715.056 777.270 L 723.199 790.040 726.849 787.824 C 728.857 786.605, 734.100 783.308, 738.500 780.498 C 742.900 777.688, 747.288 775.090, 748.250 774.726 C 750.609 773.832, 750.455 771.715, 747.862 769.405 C 745.866 767.626, 735.894 755.297, 714.470 728.122 C 709.537 721.864, 704.150 715.038, 702.500 712.953 C 700.850 710.868, 697.621 706.763, 695.324 703.831 C 693.027 700.899, 687.033 693.325, 682.005 687 C 676.976 680.675, 670.173 672.013, 666.886 667.750 C 663.599 663.487, 660.593 660.010, 660.205 660.021 C 659.817 660.033, 656.385 662.061, 652.578 664.527 M 696.974 667.933 L 689.500 674.865 692 677.301 C 693.375 678.641, 700.854 685.608, 708.620 692.783 L 722.740 705.828 730.620 698.369 L 738.500 690.910 736 688.864 C 734.625 687.739, 730.799 684.271, 727.497 681.159 C 710.573 665.204, 705.927 661, 705.221 661 C 704.796 661, 701.085 664.120, 696.974 667.933 M 407.500 676.919 C 398.700 685.095, 391.591 692.081, 391.703 692.443 C 391.814 692.805, 395.259 696.233, 399.357 700.060 L 406.809 707.019 423.313 691.760 L 439.818 676.500 432.684 669.250 C 428.760 665.263, 425.089 662.012, 424.525 662.027 C 423.961 662.042, 416.300 668.743, 407.500 676.919 M 597 686.066 C 588.617 687.615, 586.483 688.556, 586.734 690.596 C 586.862 691.643, 587.690 696.775, 588.572 702 C 589.455 707.225, 590.571 713.975, 591.051 717 C 591.532 720.025, 592.656 727, 593.550 732.500 C 594.443 738, 595.557 744.975, 596.025 748 C 597.429 757.074, 598.921 766.171, 599.962 772 C 600.503 775.025, 601.650 782, 602.513 787.500 C 603.375 793, 604.495 799.975, 605.002 803 C 605.508 806.025, 606.420 811.650, 607.030 815.500 C 609.035 828.175, 608.973 828, 611.430 828 C 612.679 828, 615.006 827.595, 616.601 827.101 C 618.195 826.607, 623.825 825.434, 629.111 824.496 C 634.397 823.558, 639.324 822.418, 640.059 821.963 C 641.142 821.294, 640.887 819.551, 638.721 812.818 C 637.250 808.243, 634.419 798.200, 632.430 790.500 C 630.441 782.800, 627.702 772.225, 626.343 767 C 624.983 761.775, 623.502 755.925, 623.050 754 C 622.599 752.075, 620.776 745.100, 619 738.500 C 617.224 731.900, 615.405 724.925, 614.958 723 C 614.097 719.291, 610.636 705.867, 609.028 700 C 608.500 698.075, 607.366 693.913, 606.506 690.750 C 604.809 684.503, 604.988 684.591, 597 686.066 M 523.155 695.200 C 521.865 700.315, 520.453 706.075, 520.018 708 C 519.583 709.925, 516.672 721.400, 513.550 733.500 C 494.423 807.612, 490.606 822.947, 491.154 823.475 C 491.344 823.659, 493.300 824.085, 495.500 824.423 C 499.068 824.970, 501.695 825.413, 508.500 826.618 C 509.600 826.812, 512.890 827.466, 515.811 828.069 C 523.105 829.577, 524 829.045, 524 823.198 C 524 820.523, 524.444 815.896, 524.987 812.917 C 525.530 809.938, 527.351 798.500, 529.032 787.500 C 530.714 776.500, 532.767 763.225, 533.594 758 C 535.897 743.449, 536.762 737.867, 539.481 720 C 540.862 710.925, 542.443 701.581, 542.996 699.236 C 543.548 696.890, 544 693.681, 544 692.104 C 544 689.521, 543.530 689.117, 539.250 688.023 C 536.638 687.355, 532.475 686.604, 530 686.354 L 525.500 685.899 523.155 695.200 M 636.675 706.670 C 626.523 710.811, 626.755 709.975, 632.371 722.180 C 637.988 734.387, 640.629 740.250, 642.991 745.750 C 644.232 748.638, 645.778 751, 646.429 751 C 647.444 751, 665.049 744.228, 665.751 743.568 C 666.515 742.849, 648.096 703.465, 646.912 703.285 C 646.135 703.167, 641.529 704.691, 636.675 706.670 M 742.839 710.645 L 735.194 718.290 785.365 768.895 C 812.959 796.728, 840.225 824.337, 845.958 830.250 C 851.690 836.163, 856.632 840.993, 856.940 840.985 C 857.935 840.959, 884.517 815.215, 884 814.778 C 883.725 814.546, 876.975 808.937, 869 802.314 C 851.408 787.705, 842.769 780.422, 828.961 768.556 C 823.164 763.575, 812.820 754.775, 805.974 749 C 799.129 743.225, 788.796 734.447, 783.014 729.492 C 777.231 724.538, 770.250 718.696, 767.500 716.511 C 764.750 714.325, 760.101 710.391, 757.169 707.769 C 754.238 705.146, 751.534 703, 751.161 703 C 750.789 703, 747.044 706.440, 742.839 710.645 M 371.389 709.250 C 368.037 712.138, 361.324 717.875, 356.472 722 C 351.621 726.125, 346.042 730.899, 344.076 732.609 C 340.712 735.533, 256.097 807.395, 249.199 813.185 C 247.440 814.662, 246 816.278, 246 816.775 C 246 817.989, 271.546 842, 272.838 842 C 273.397 842, 274.825 840.763, 276.011 839.250 C 277.198 837.737, 293.993 820.516, 313.334 800.980 C 332.675 781.444, 358.850 754.965, 371.500 742.139 L 394.500 718.819 386.500 711.438 C 382.100 707.379, 378.272 704.045, 377.993 704.029 C 377.714 704.013, 374.742 706.362, 371.389 709.250 M 480.347 707.350 C 477.077 712.401, 463.835 743.924, 464.518 745.030 C 464.848 745.563, 465.657 746, 466.316 746 C 466.975 746, 471.479 747.557, 476.325 749.459 L 485.136 752.918 486.678 749.209 C 487.527 747.169, 490.927 739.425, 494.235 732 C 500.534 717.861, 502.171 712.895, 501.103 711.166 C 500.452 710.114, 485.402 703.990, 483.523 704.012 C 482.960 704.019, 481.531 705.521, 480.347 707.350 M 555.705 720.823 C 554.163 721.116, 554.001 723.126, 554.015 741.823 C 554.024 753.195, 554.398 763.079, 554.847 763.787 C 555.448 764.733, 558.420 764.998, 566.082 764.787 L 576.500 764.500 576.771 743.571 C 576.951 729.668, 576.682 722.282, 575.970 721.571 C 574.995 720.597, 559.845 720.038, 555.705 720.823 M 419.119 835.287 C 389.212 895.173, 381.324 911.752, 382.281 912.708 C 384.010 914.433, 414.557 925.966, 418.170 926.258 C 420.932 926.481, 421.320 926.098, 423.006 921.500 C 424.014 918.750, 426.738 911.325, 429.060 905 C 431.382 898.675, 434.365 890.350, 435.689 886.500 C 437.014 882.650, 438.490 878.600, 438.971 877.500 C 439.451 876.400, 440.602 873.250, 441.528 870.500 C 442.454 867.750, 443.614 864.600, 444.105 863.500 C 444.597 862.400, 446.333 857.675, 447.962 853 C 449.591 848.325, 452.344 840.675, 454.079 836 C 455.814 831.325, 458.268 824.575, 459.533 821 C 460.798 817.425, 463.484 810, 465.501 804.500 C 467.519 799, 470.212 791.575, 471.487 788 C 472.762 784.425, 474.955 778.502, 476.361 774.838 C 479.144 767.584, 479.021 767.173, 473.500 765.240 C 471.850 764.662, 467.502 763.040, 463.837 761.636 L 457.174 759.083 419.119 835.287 M 661.500 762.648 C 656.550 764.633, 652.352 766.385, 652.172 766.540 C 651.991 766.696, 654.842 774.401, 658.507 783.662 C 662.173 792.923, 667.212 805.675, 669.707 812 C 672.201 818.325, 674.815 824.850, 675.516 826.500 C 676.217 828.150, 680.454 838.950, 684.933 850.500 C 689.411 862.050, 693.500 872.400, 694.019 873.500 C 694.538 874.600, 697.473 882.025, 700.543 890 C 709.225 912.557, 713.224 922.393, 714.252 923.722 C 714.990 924.674, 716.003 924.603, 718.849 923.396 C 720.857 922.544, 727 920.116, 732.500 918 C 738 915.884, 744.200 913.432, 746.278 912.551 L 750.057 910.949 711.778 834.988 C 686.613 785.049, 672.986 759.029, 672 759.033 C 671.175 759.036, 666.450 760.662, 661.500 762.648 M 554.666 781.750 C 554.417 782.163, 553.941 794.200, 553.608 808.500 C 553.276 822.800, 552.521 848, 551.931 864.500 C 550.114 915.327, 549.463 949.170, 550.291 949.681 C 551.272 950.286, 587.246 950.087, 587.860 949.474 C 588.305 949.028, 586.835 920.705, 585.007 894.500 C 584.470 886.800, 583.335 869.025, 582.485 855 C 578.588 790.711, 578.053 782.896, 577.486 781.978 C 576.785 780.843, 555.342 780.629, 554.666 781.750" stroke="none" fill="black" fill-rule="evenodd"/>
</svg>