<?xml version="1.0" encoding="UTF-8"?>
<!DOCTYPE svg PUBLIC "-//W3C//DTD SVG 1.1//EN" "http://www.w3.org/Graphics/SVG/1.1/DTD/svg11.dtd">
<!-- Creator: CorelDRAW 2019 (64-Bit) -->
<svg xmlns="http://www.w3.org/2000/svg" xml:space="preserve" width="4950px" height="1080px" version="1.1" style="shape-rendering:geometricPrecision; text-rendering:geometricPrecision; image-rendering:optimizeQuality; fill-rule:evenodd; clip-rule:evenodd"
viewBox="0 0 4950 1079.98"
 xmlns:xlink="http://www.w3.org/1999/xlink"
 xmlns:xodm="http://www.corel.com/coreldraw/odm/2003">
 <defs>
  <style type="text/css">
   <![CDATA[
    .fil0 {fill:#0064D3}
    .fil1 {fill:#FEDD00}
   ]]>
  </style>
 </defs>
 <g id="Layer_x0020_1">
  <metadata id="CorelCorpID_0Corel-Layer"/>
  <path class="fil0" d="M323.38 711.57c-10.57,-9.76 -24.67,-15.74 -40.1,-15.74l-20.48 0c-14.57,0 -36.48,-19.84 -36.48,-36.36l0 -88.53 0 -55.84 0 -109.72 48.32 0c32.47,0 59.03,-26.56 59.03,-59.03l0 0c0,-32.47 -26.56,-59.04 -59.03,-59.04l-48.32 0 0 -80.36c0,-36.7 -30.03,-66.74 -66.74,-66.74 -36.7,0 -66.73,30.04 -66.73,66.74l0 80.36 -33.82 0c-32.46,0 -59.03,26.57 -59.03,59.04l0 0c0,32.47 26.57,59.03 59.03,59.03l33.82 0c0,98.51 0,190.41 0,288.93 -0.93,20.82 8.41,42.07 8.41,42.07 14.81,38.21 48.32,67.09 89.3,75.42 7.88,1.6 16.05,2.44 24.41,2.44l68.31 0c32.56,0 59.2,-26.64 59.2,-59.21 0,-11.78 -3.49,-22.79 -9.48,-32.04 -2.72,-4.2 -5.96,-8.03 -9.62,-11.42zm1151.88 -135.93l-256.94 0c53.77,180.86 206.17,118.8 266.75,91.89 22.06,-9.79 71.63,14.9 65.69,56.06 -5.94,41.16 -59.15,59.16 -59.15,59.16 0,0 -67.55,27.79 -149.71,24.59 -149.64,-5.83 -256.31,-121.55 -260.84,-273.35 4.53,-151.79 119.69,-273.34 261.12,-273.34 220.02,0 344.14,314.99 195.03,314.99l-61.95 0zm0 -91.9c-11.13,-65.45 -65.07,-118.54 -128.47,-118.54 -63.4,0 -117.67,51.18 -128.47,118.54l256.94 0zm425.84 227.83c-10.57,-9.76 -24.67,-15.74 -40.11,-15.74l-20.47 0c-14.57,0 -36.49,-19.84 -36.49,-36.36l0 -88.53 0 -55.84 0 -109.72 48.33 0c32.47,0 59.03,-26.56 59.03,-59.03l0 0c0,-32.47 -26.56,-59.04 -59.03,-59.04l-48.33 0 0 -80.36c0,-36.7 -30.03,-66.74 -66.73,-66.74 -36.71,0 -66.74,30.04 -66.74,66.74l0 80.36 -33.81 0c-32.47,0 -59.03,26.57 -59.03,59.04l0 0c0,32.47 26.56,59.03 59.03,59.03l33.81 0c0,98.51 0,190.41 0,288.93 -0.92,20.82 8.42,42.07 8.42,42.07 14.81,38.21 48.32,67.09 89.29,75.42 7.89,1.6 16.06,2.44 24.42,2.44l68.3 0c32.57,0 59.21,-26.64 59.21,-59.21 0,-11.78 -3.49,-22.79 -9.49,-32.04 -2.72,-4.2 -5.95,-8.03 -9.61,-11.42zm-1273.3 -374.87l0 401.61c0,36.71 30.03,66.74 66.74,66.74 36.7,0 66.73,-30.03 66.73,-66.74l0 -44.38 0 -22.75 59.67 -68.46 9.02 12.41 117.71 162.12c20.88,28.77 61.5,35.21 90.25,14.33 28.76,-20.88 35.21,-61.5 14.33,-90.26l-135.16 -186.16 120.93 -138.74c21.61,-24.8 19.01,-62.77 -5.79,-84.38 -24.8,-21.61 -62.77,-19.01 -84.38,5.79l-102.87 118.02 -83.71 96.04 0 -211.34 0 -154.03c0,-36.7 -30.03,-66.73 -66.73,-66.73 -36.66,0 -66.67,29.96 -66.74,66.6 0,0.04 0,0.09 0,0.13l0 190.18zm-162.93 -72.18l0 0c36.7,0 66.73,30.03 66.73,66.74l0 396.28c0,36.7 -30.03,66.73 -66.73,66.73l0 0c-36.71,0 -66.74,-30.03 -66.74,-66.73l0 -396.28c0,-36.71 30.03,-66.74 66.74,-66.74z"/>
  <path class="fil0" d="M3293.65 532.19c0,-104.28 77.74,-188.81 173.64,-188.81 27.94,0 54.35,7.17 77.73,19.93 14.2,7.74 27.28,17.53 38.93,29.02 0.37,0.12 0.74,0.24 1.11,0.37 4.46,1.59 9.26,2.45 14.27,2.45 23.54,0 42.63,-19.09 42.63,-42.64 0,-7.76 -2.08,-15.05 -5.71,-21.32 -0.25,-0.42 -0.46,-0.87 -0.65,-1.34 -10.86,-10.25 -22.55,-19.57 -34.95,-27.82 -40.72,-27.12 -89.12,-42.84 -141.04,-42.84 -144.8,0 -262.17,122.22 -262.17,273 0,150.76 117.37,272.98 262.17,272.98 47.4,0 91.87,-13.1 130.24,-36.01 17,-10.16 32.81,-22.24 47.14,-35.96 0.11,-0.21 0.21,-0.42 0.32,-0.62 2.97,-5.81 4.65,-12.41 4.65,-19.39 0,-23.54 -19.09,-42.63 -42.63,-42.63 -6.4,0 -12.48,1.41 -17.93,3.94 -5.38,5.11 -11.05,9.86 -16.98,14.22 -0.02,0.02 -0.04,0.05 -0.06,0.08 -0.43,0.61 -1.09,1.06 -1.94,1.36 -9.63,6.87 -19.93,12.73 -30.76,17.44 -19.91,8.64 -41.63,13.39 -64.37,13.39 -95.9,0 -173.64,-84.53 -173.64,-188.8zm1042.04 -184.93l0 -32.89c0,-25.18 -20.61,-45.79 -45.8,-45.79 -25.18,0 -45.79,20.61 -45.79,45.79l0 435.47c0,25.18 20.61,45.79 45.8,45.79 25.18,0 45.79,-20.61 45.79,-45.79l0 -336.1c61.05,-68.81 171.25,-120.92 210.81,0l0 336.1c0,25.18 20.61,45.79 45.8,45.79 25.18,0 45.79,-20.61 45.79,-45.79l0 -336.1c89.4,-89.77 171.82,-99.76 220.32,0l0 336.1c0,25.18 20.61,45.79 45.79,45.79 25.19,0 45.8,-20.61 45.8,-45.79l0 -366.91c-12.57,-52.44 -39.58,-86.7 -73.47,-104.98 -72.62,-39.19 -176.87,-5.02 -238.44,80.78 -4.22,-12.96 -9.66,-24.56 -16.15,-34.83 -56.96,-90.15 -194.32,-77.21 -286.25,23.36zm-399.03 -88.07c144.79,0 262.17,122.22 262.17,273 0,150.76 -117.38,272.98 -262.17,272.98 -144.79,0 -262.17,-122.22 -262.17,-272.98 0,-150.78 117.38,-273 262.17,-273zm-1.21 84.19c90.4,0 163.68,84.53 163.68,188.81 0,104.27 -73.28,188.8 -163.68,188.8 -90.39,0 -163.67,-84.53 -163.67,-188.8 0,-104.28 73.28,-188.81 163.67,-188.81z"/>
  <path class="fil1" d="M2558.96 0c298.23,0 539.98,241.76 539.98,539.99 0,298.23 -241.75,539.99 -539.98,539.99 -298.23,0 -539.99,-241.76 -539.99,-539.99 0,-298.23 241.76,-539.99 539.99,-539.99z"/>
 </g>
</svg>
